<svg id="レイヤー_1" data-name="レイヤー 1" xmlns="http://www.w3.org/2000/svg" viewBox="0 0 930 199"><defs><style>.cls-1,.cls-3{fill:#ff5722;}.cls-2{fill:none;stroke:#ff5722;stroke-miterlimit:8;}.cls-3,.cls-6{font-size:24.97px;font-family:HiraKakuPro-W3-83pv-RKSJ-H, Hiragino Kaku Gothic Pro;}.cls-4{fill:#00bcd4;opacity:0.2;}.cls-5{fill:#f2f2f2;}.cls-6{stroke:#000;stroke-miterlimit:10;}</style></defs><title>syutyou</title><path class="cls-1" d="M45,42.87A27.08,27.08,0,0,0,30.42,57.49,4.62,4.62,0,1,0,39,61a18,18,0,0,1,3.86-5.75,17.75,17.75,0,0,1,5.75-3.86A4.62,4.62,0,1,0,45,42.87Z"/><polygon class="cls-1" points="40.43 109.56 62.27 109.56 63.34 103.94 39.34 103.94 40.43 109.56"/><path class="cls-1" d="M51.07,117.38c3.94,0,7.14-2.37,7.14-5.3H43.94C43.94,115,47.13,117.38,51.07,117.38Z"/><path class="cls-1" d="M20.24,92.16c.63.68,1.29,1.35,2,2l4.63-5.07c-.51-.48-1-1-1.48-1.5Z"/><path class="cls-1" d="M9,61.89c0,.52,0,1,0,1.57s0,.84,0,1.26l4.9-.26h2c0-.33,0-.67,0-1s0-.79,0-1.18Z"/><path class="cls-1" d="M27.07,37.68l-4.58-5.11c-.69.64-1.35,1.3-2,2l5.08,4.62C26.06,38.65,26.56,38.16,27.07,37.68Z"/><path class="cls-1" d="M51.22,29.52l1.15,0,.37-6.86q-.77,0-1.53,0l-1.28,0,.43,6.86Z"/><path class="cls-1" d="M93.36,62.18l-6.86.36c0,.32,0,.65,0,1s0,.84,0,1.25l6.86.4q0-.83,0-1.65C93.38,63.08,93.38,62.64,93.36,62.18Z"/><path class="cls-1" d="M75.49,37.85c.51.49,1,1,1.49,1.49l5.11-4.58c-.64-.69-1.3-1.35-2-2Z"/><path class="cls-1" d="M75.26,89.35l4.57,5.12c.68-.63,1.35-1.29,2-2l-5.07-4.63C76.27,88.38,75.77,88.87,75.26,89.35Z"/><path class="cls-1" d="M70.23,45.78a26.92,26.92,0,0,0-45.95,19c0,7.81,3.9,17,8.79,21.73,4,3.94,6.15,6.75,7.24,8.72H37.42l1.21,6.25H64.07l1.2-6.25h-3.2c1.09-2,3.2-4.78,7.24-8.72C74.2,81.8,78.1,72.63,78.1,64.82A26.89,26.89,0,0,0,70.23,45.78ZM48.69,91.6a.77.77,0,0,1-.26.07.86.86,0,0,1-.87-.37L40.48,78.7a.67.67,0,0,1,.43-.94.92.92,0,0,1,1.14.3l7.08,12.61A.67.67,0,0,1,48.69,91.6Zm-.12-40.19a17.75,17.75,0,0,0-5.75,3.86A18,18,0,0,0,39,61a4.62,4.62,0,1,1-8.54-3.53A27.08,27.08,0,0,1,45,42.87a4.62,4.62,0,1,1,3.53,8.54ZM61.89,78.19l-7.83,13a1,1,0,0,1-.9.42,1.22,1.22,0,0,1-.26-.06.62.62,0,0,1-.38-.91l7.83-13a1,1,0,0,1,1.16-.36A.62.62,0,0,1,61.89,78.19Z"/><polygon class="cls-1" points="921 72.14 904.36 62.13 904.36 82.15 921 72.14"/><line class="cls-2" x1="905.05" y1="71.89" x2="106.15" y2="71.89"/><circle class="cls-1" cx="777.46" cy="71.89" r="6.24"/><text class="cls-3" transform="translate(714.99 53.81)">事業本格化</text><rect class="cls-4" x="144.3" y="57" width="562.7" height="29.39"/><polygon class="cls-5" points="393.33 116.82 383.62 94.63 373.91 116.82 317.05 116.82 317.05 177.85 615.24 177.85 615.24 116.82 393.33 116.82"/><text class="cls-6" transform="translate(328.23 157.04)">ここをお手伝いします！</text></svg>