<svg id="レイヤー_1" data-name="レイヤー 1" xmlns="http://www.w3.org/2000/svg" xmlns:xlink="http://www.w3.org/1999/xlink" viewBox="0 0 930 427"><defs><style>.cls-1,.cls-2{fill:none;}.cls-2{stroke:#d9d9d9;stroke-linejoin:round;}.cls-3{clip-path:url(#clip-path);}.cls-4,.cls-6{fill:#ff5722;}.cls-5{fill:#f2f2f2;}.cls-6{font-size:24px;stroke:#ff5722;stroke-miterlimit:10;stroke-width:0.5px;font-family:HiraKakuPro-W6-83pv-RKSJ-H, Hiragino Kaku Gothic Pro;}</style><clipPath id="clip-path"><rect class="cls-1" x="314.5" y="29.61" width="547" height="386"/></clipPath></defs><title>why-fail</title><path class="cls-2" d="M861,30.11v386m-91-386v386m-91-386v386m-91-386v386m-91-386v386m-91-386v386"/><g class="cls-3"><rect class="cls-4" x="314.5" y="40.61" width="492" height="56"/></g><g class="cls-3"><path class="cls-5" d="M369.5,348.61h-55v56h55Zm18-77h-73v56h73Zm73-77h-146v56h146Zm109-77h-255v56h255Z"/></g><path class="cls-5" d="M307.14,7.62v8.09h1.62v.64h-4.09v-.64h1.73V8.44a8.62,8.62,0,0,1-1.77.9l-.13-.7a8.34,8.34,0,0,0,2-1Zm8.58.13v.66h-3.54l-.11,2.28c0,.17,0,.51-.07,1a1.76,1.76,0,0,1,.76-.69,2.16,2.16,0,0,1,2.67.63,3,3,0,0,1,.6,1.92,3,3,0,0,1-.84,2.27,2.35,2.35,0,0,1-1.7.68,2.37,2.37,0,0,1-2.4-1.6l.73-.31a1.66,1.66,0,0,0,1.67,1.26,1.54,1.54,0,0,0,1.33-.68,2.73,2.73,0,0,0,.42-1.58,2.46,2.46,0,0,0-.5-1.66,1.5,1.5,0,0,0-1.17-.5,1.6,1.6,0,0,0-1,.36,1.8,1.8,0,0,0-.57.84l-.63-.1.2-4.79Zm1.89.34a1.52,1.52,0,0,1,1.17-.49,1.54,1.54,0,0,1,1.31.63,2.47,2.47,0,0,1,.43,1.54,2.34,2.34,0,0,1-.56,1.7,1.57,1.57,0,0,1-1.19.48,1.53,1.53,0,0,1-1.29-.62A2.52,2.52,0,0,1,317,9.78a2.34,2.34,0,0,1,.57-1.69Zm2.26,1.69c0-1.11-.36-1.67-1.1-1.67s-1.11.56-1.11,1.67.37,1.66,1.11,1.66,1.1-.55,1.1-1.66ZM324,7.6l-5.34,8.91h-.59l5.35-8.91Zm-1.82,5.05a1.54,1.54,0,0,1,1.18-.49,1.57,1.57,0,0,1,1.31.62,2.52,2.52,0,0,1,.43,1.55,2.39,2.39,0,0,1-.56,1.7,1.56,1.56,0,0,1-1.19.49,1.52,1.52,0,0,1-1.3-.63,2.5,2.5,0,0,1-.43-1.55,2.38,2.38,0,0,1,.56-1.69Zm2.27,1.69c0-1.11-.37-1.67-1.1-1.67s-1.11.56-1.11,1.67.37,1.66,1.11,1.66,1.1-.55,1.1-1.66Z"/><path class="cls-5" d="M395.21,9.87a2.87,2.87,0,0,1,1-1.77,2.45,2.45,0,0,1,1.56-.5,2.34,2.34,0,0,1,1.75.66,2.15,2.15,0,0,1,.58,1.55,2.53,2.53,0,0,1-.42,1.41,8.68,8.68,0,0,1-1.39,1.5,9.14,9.14,0,0,0-2.38,3h4.2v.66h-5v-.59a10.08,10.08,0,0,1,2.6-3.48A7.48,7.48,0,0,0,399,10.82a1.93,1.93,0,0,0,.27-1,1.51,1.51,0,0,0-.49-1.19,1.57,1.57,0,0,0-1.06-.36c-1,0-1.58.6-1.78,1.8ZM402.12,12q0-4.42,2.58-4.43c1.7,0,2.56,1.47,2.56,4.41s-.87,4.5-2.59,4.5S402.12,15,402.12,12ZM406,9a1.37,1.37,0,0,0-1.26-.74,1.42,1.42,0,0,0-1.39,1,7.42,7.42,0,0,0-.39,2.78,6.9,6.9,0,0,0,.49,3.07,1.35,1.35,0,0,0,1.26.76,1.44,1.44,0,0,0,1.4-1,7.9,7.9,0,0,0,.38-2.81A6.63,6.63,0,0,0,406,9Zm2.72-.91a1.67,1.67,0,0,1,2.49.14,2.47,2.47,0,0,1,.43,1.54,2.39,2.39,0,0,1-.56,1.7,1.59,1.59,0,0,1-1.19.48,1.54,1.54,0,0,1-1.3-.62,2.59,2.59,0,0,1-.43-1.55,2.38,2.38,0,0,1,.56-1.69ZM411,9.78c0-1.11-.37-1.67-1.1-1.67s-1.11.56-1.11,1.67.37,1.66,1.11,1.66,1.1-.55,1.1-1.66Zm4.16-2.18-5.34,8.91h-.59l5.35-8.91Zm-1.82,5.05a1.67,1.67,0,0,1,2.48.13,2.52,2.52,0,0,1,.44,1.55,2.34,2.34,0,0,1-.57,1.7,1.53,1.53,0,0,1-1.19.49,1.51,1.51,0,0,1-1.29-.63,2.5,2.5,0,0,1-.43-1.55,2.33,2.33,0,0,1,.56-1.69Zm2.27,1.69c0-1.11-.37-1.67-1.11-1.67s-1.1.56-1.1,1.67.37,1.66,1.1,1.66,1.11-.55,1.11-1.66Z"/><path class="cls-5" d="M486.29,9.87a2.87,2.87,0,0,1,1-1.77,2.45,2.45,0,0,1,1.56-.5,2.32,2.32,0,0,1,1.74.66,2.11,2.11,0,0,1,.58,1.55,2.52,2.52,0,0,1-.41,1.41,8.42,8.42,0,0,1-1.4,1.5,9.27,9.27,0,0,0-2.38,3h4.21v.66h-5v-.59a10,10,0,0,1,2.59-3.48,7.27,7.27,0,0,0,1.3-1.46,2,2,0,0,0,.26-1,1.5,1.5,0,0,0-.48-1.19,1.57,1.57,0,0,0-1.06-.36c-1,0-1.58.6-1.79,1.8Zm11.59-2.12v.66h-3.55l-.1,2.28c0,.17,0,.51-.07,1a1.79,1.79,0,0,1,.75-.69,2.18,2.18,0,0,1,2.68.63,3,3,0,0,1,.6,1.92,3,3,0,0,1-.85,2.27,2.33,2.33,0,0,1-1.7.68,2.37,2.37,0,0,1-2.4-1.6l.73-.31a1.67,1.67,0,0,0,1.67,1.26,1.53,1.53,0,0,0,1.33-.68,2.66,2.66,0,0,0,.43-1.58,2.41,2.41,0,0,0-.51-1.66,1.48,1.48,0,0,0-1.16-.5,1.62,1.62,0,0,0-1,.36,2,2,0,0,0-.57.84l-.63-.1.21-4.79Zm1.88.34a1.67,1.67,0,0,1,2.49.14,2.54,2.54,0,0,1,.43,1.54,2.39,2.39,0,0,1-.56,1.7,1.59,1.59,0,0,1-1.19.48,1.54,1.54,0,0,1-1.3-.62,2.52,2.52,0,0,1-.43-1.55,2.38,2.38,0,0,1,.56-1.69ZM502,9.78c0-1.11-.37-1.67-1.1-1.67s-1.11.56-1.11,1.67.37,1.66,1.11,1.66,1.1-.55,1.1-1.66Zm4.15-2.18-5.34,8.91h-.59l5.36-8.91Zm-1.81,5.05a1.52,1.52,0,0,1,1.17-.49,1.55,1.55,0,0,1,1.31.62,2.52,2.52,0,0,1,.43,1.55,2.34,2.34,0,0,1-.56,1.7,1.55,1.55,0,0,1-1.19.49,1.51,1.51,0,0,1-1.29-.63,2.5,2.5,0,0,1-.44-1.55,2.34,2.34,0,0,1,.57-1.69Zm2.26,1.69c0-1.11-.36-1.67-1.1-1.67s-1.11.56-1.11,1.67.37,1.66,1.11,1.66,1.1-.55,1.1-1.66Z"/><path class="cls-5" d="M577.37,9.26A2.47,2.47,0,0,1,579.8,7.6a2.35,2.35,0,0,1,1.74.66,1.89,1.89,0,0,1,.6,1.43,2,2,0,0,1-.5,1.39,2.2,2.2,0,0,1-1.15.63v.08a2.34,2.34,0,0,1,1.42.85,2.2,2.2,0,0,1,.43,1.37,2.38,2.38,0,0,1-.8,1.89,2.51,2.51,0,0,1-1.72.61,2.64,2.64,0,0,1-2.62-1.64l.72-.31a2.12,2.12,0,0,0,.82,1,2.06,2.06,0,0,0,1.08.26,1.6,1.6,0,0,0,1.31-.57,1.88,1.88,0,0,0,.42-1.26,1.73,1.73,0,0,0-.6-1.44,2.33,2.33,0,0,0-1.52-.44h-.67v-.69h.6a2.09,2.09,0,0,0,1.55-.52,1.6,1.6,0,0,0,.45-1.19,1.4,1.4,0,0,0-.51-1.16,1.63,1.63,0,0,0-1.07-.34,1.68,1.68,0,0,0-1.08.36,2,2,0,0,0-.61.93Zm6.9,2.77q0-4.42,2.59-4.43T589.41,12q0,4.5-2.58,4.5c-1.71,0-2.56-1.5-2.56-4.48Zm3.84-3a1.36,1.36,0,0,0-1.25-.74,1.42,1.42,0,0,0-1.39,1,7.39,7.39,0,0,0-.4,2.78,6.88,6.88,0,0,0,.5,3.07,1.33,1.33,0,0,0,1.26.76,1.43,1.43,0,0,0,1.39-1,7.64,7.64,0,0,0,.39-2.81,6.6,6.6,0,0,0-.5-3Zm2.73-.91a1.66,1.66,0,0,1,2.48.14,2.47,2.47,0,0,1,.44,1.54,2.34,2.34,0,0,1-.57,1.7A1.57,1.57,0,0,1,592,12a1.53,1.53,0,0,1-1.29-.62,2.52,2.52,0,0,1-.43-1.55,2.33,2.33,0,0,1,.56-1.69Zm2.27,1.69c0-1.11-.37-1.67-1.11-1.67s-1.1.56-1.1,1.67.37,1.66,1.1,1.66,1.11-.55,1.11-1.66Zm4.15-2.18-5.34,8.91h-.59l5.36-8.91Zm-1.82,5.05a1.68,1.68,0,0,1,2.49.13,2.52,2.52,0,0,1,.43,1.55,2.39,2.39,0,0,1-.56,1.7,1.56,1.56,0,0,1-1.19.49,1.52,1.52,0,0,1-1.3-.63,2.57,2.57,0,0,1-.43-1.55,2.38,2.38,0,0,1,.56-1.69Zm2.27,1.69c0-1.11-.37-1.67-1.1-1.67s-1.11.56-1.11,1.67.37,1.66,1.11,1.66,1.1-.55,1.1-1.66Z"/><path class="cls-5" d="M668.45,9.26a2.47,2.47,0,0,1,2.42-1.66,2.38,2.38,0,0,1,1.75.66,1.89,1.89,0,0,1,.59,1.43,2,2,0,0,1-.5,1.39,2.13,2.13,0,0,1-1.14.63v.08a2.34,2.34,0,0,1,1.42.85,2.2,2.2,0,0,1,.43,1.37,2.38,2.38,0,0,1-.8,1.89,2.53,2.53,0,0,1-1.72.61,2.63,2.63,0,0,1-2.62-1.64l.72-.31a2.16,2.16,0,0,0,.81,1,2.12,2.12,0,0,0,1.09.26,1.61,1.61,0,0,0,1.31-.57,1.88,1.88,0,0,0,.42-1.26,1.71,1.71,0,0,0-.61-1.44,2.28,2.28,0,0,0-1.51-.44h-.67v-.69h.6a2.11,2.11,0,0,0,1.55-.52,1.63,1.63,0,0,0,.44-1.19,1.39,1.39,0,0,0-.5-1.16,1.63,1.63,0,0,0-1.07-.34,1.7,1.7,0,0,0-1.09.36,2,2,0,0,0-.6.93ZM680,7.75v.66h-3.54l-.11,2.28c0,.17,0,.51-.07,1a1.76,1.76,0,0,1,.76-.69,2,2,0,0,1,.92-.22,2.11,2.11,0,0,1,1.75.85,3,3,0,0,1,.6,1.92,3,3,0,0,1-.84,2.27,2.35,2.35,0,0,1-1.7.68,2.37,2.37,0,0,1-2.4-1.6l.73-.31a1.66,1.66,0,0,0,1.67,1.26,1.54,1.54,0,0,0,1.33-.68,2.73,2.73,0,0,0,.42-1.58,2.46,2.46,0,0,0-.5-1.66,1.51,1.51,0,0,0-1.17-.5,1.6,1.6,0,0,0-1,.36,1.9,1.9,0,0,0-.58.84l-.62-.1.2-4.79Zm1.89.34a1.52,1.52,0,0,1,1.17-.49,1.54,1.54,0,0,1,1.31.63,2.47,2.47,0,0,1,.43,1.54,2.34,2.34,0,0,1-.56,1.7,1.57,1.57,0,0,1-1.19.48,1.52,1.52,0,0,1-1.29-.62,2.52,2.52,0,0,1-.44-1.55,2.34,2.34,0,0,1,.57-1.69Zm2.26,1.69c0-1.11-.36-1.67-1.1-1.67S682,8.67,682,9.78s.37,1.66,1.11,1.66,1.1-.55,1.1-1.66Zm4.16-2.18L683,16.51h-.59l5.35-8.91Zm-1.82,5.05a1.54,1.54,0,0,1,1.18-.49,1.57,1.57,0,0,1,1.31.62,2.59,2.59,0,0,1,.43,1.55,2.39,2.39,0,0,1-.56,1.7,1.56,1.56,0,0,1-1.19.49,1.52,1.52,0,0,1-1.3-.63,2.5,2.5,0,0,1-.43-1.55,2.38,2.38,0,0,1,.56-1.69Zm2.27,1.69c0-1.11-.37-1.67-1.1-1.67s-1.11.56-1.11,1.67S687,16,687.69,16s1.1-.55,1.1-1.66Z"/><path class="cls-5" d="M763.45,7.63v6h1.27v.62h-1.27v2.07h-.69V14.28h-3.53V13.7l3.17-6.07Zm-.69,6V10.07c0-.24,0-.84,0-1.82h-.11c-.25.59-.51,1.15-.79,1.68L760,13.66ZM766.43,12q0-4.42,2.58-4.43T771.56,12q0,4.5-2.58,4.5c-1.7,0-2.55-1.5-2.55-4.48Zm3.83-3A1.34,1.34,0,0,0,769,8.26a1.42,1.42,0,0,0-1.39,1,7.42,7.42,0,0,0-.39,2.78,6.9,6.9,0,0,0,.49,3.07,1.35,1.35,0,0,0,1.26.76,1.44,1.44,0,0,0,1.4-1,7.9,7.9,0,0,0,.38-2.81,6.47,6.47,0,0,0-.5-3ZM773,8.09a1.67,1.67,0,0,1,2.49.14,2.47,2.47,0,0,1,.43,1.54,2.39,2.39,0,0,1-.56,1.7,1.59,1.59,0,0,1-1.19.48,1.54,1.54,0,0,1-1.3-.62,2.52,2.52,0,0,1-.43-1.55A2.38,2.38,0,0,1,773,8.09Zm2.27,1.69c0-1.11-.37-1.67-1.1-1.67s-1.11.56-1.11,1.67.37,1.66,1.11,1.66,1.1-.55,1.1-1.66Zm4.15-2.18-5.33,8.91h-.6l5.36-8.91Zm-1.81,5.05a1.67,1.67,0,0,1,2.48.13,2.52,2.52,0,0,1,.44,1.55A2.34,2.34,0,0,1,780,16a1.55,1.55,0,0,1-1.19.49,1.51,1.51,0,0,1-1.29-.63,2.5,2.5,0,0,1-.43-1.55,2.33,2.33,0,0,1,.56-1.69Zm2.27,1.69c0-1.11-.37-1.67-1.11-1.67s-1.1.56-1.1,1.67S778,16,778.76,16s1.11-.55,1.11-1.66Z"/><path class="cls-5" d="M854.52,7.63v6h1.27v.62h-1.27v2.07h-.68V14.28h-3.53V13.7l3.17-6.07Zm-.68,6V10.07c0-.24,0-.84,0-1.82h-.12q-.36.88-.78,1.68L851,13.66Zm8.35-5.91v.66h-3.55l-.11,2.28c0,.17,0,.51-.07,1a1.81,1.81,0,0,1,.76-.69,2.18,2.18,0,0,1,2.68.63,3,3,0,0,1,.6,1.92,3,3,0,0,1-.85,2.27,2.35,2.35,0,0,1-1.7.68,2.37,2.37,0,0,1-2.4-1.6l.73-.31A1.67,1.67,0,0,0,860,15.86a1.53,1.53,0,0,0,1.33-.68,2.73,2.73,0,0,0,.42-1.58,2.41,2.41,0,0,0-.5-1.66,1.48,1.48,0,0,0-1.17-.5,1.6,1.6,0,0,0-1,.36,1.88,1.88,0,0,0-.57.84l-.63-.1L858,7.75Zm1.88.34a1.54,1.54,0,0,1,1.18-.49,1.52,1.52,0,0,1,1.3.63A2.47,2.47,0,0,1,867,9.77a2.39,2.39,0,0,1-.56,1.7,1.59,1.59,0,0,1-1.19.48,1.54,1.54,0,0,1-1.3-.62,2.52,2.52,0,0,1-.43-1.55,2.33,2.33,0,0,1,.56-1.69Zm2.27,1.69c0-1.11-.37-1.67-1.1-1.67s-1.11.56-1.11,1.67.37,1.66,1.11,1.66,1.1-.55,1.1-1.66Zm4.15-2.18-5.34,8.91h-.59l5.36-8.91Zm-1.81,5.05a1.52,1.52,0,0,1,1.17-.49,1.55,1.55,0,0,1,1.31.62,2.52,2.52,0,0,1,.43,1.55A2.34,2.34,0,0,1,871,16a1.55,1.55,0,0,1-1.19.49,1.5,1.5,0,0,1-1.29-.63,2.5,2.5,0,0,1-.44-1.55,2.34,2.34,0,0,1,.57-1.69Zm2.26,1.69c0-1.11-.36-1.67-1.1-1.67s-1.11.56-1.11,1.67S869.1,16,869.84,16s1.1-.55,1.1-1.66Z"/><path class="cls-5" d="M220.09,149.32a1.22,1.22,0,0,0-.24-.3,9.15,9.15,0,0,0,2.85-.84,2.2,2.2,0,0,0,.39-.3,5.36,5.36,0,0,1,.48.24.17.17,0,0,1,.09.13c0,.05,0,.09-.1.1a.83.83,0,0,0-.34.13,9.17,9.17,0,0,1-2.86,1,.4.4,0,0,1-.13,0s-.09-.05-.14-.15Zm.75-7a12.87,12.87,0,0,0,2.28-1v.33a.68.68,0,0,1,0,.12c0,.05,0,.11-.16.17a16.19,16.19,0,0,1-2.06.91,2.5,2.5,0,0,0-.44.2.42.42,0,0,1-.14.08.17.17,0,0,1-.13-.08,5.71,5.71,0,0,1-.22-.53,5.3,5.3,0,0,0,.86-.19Zm1.44-1.85a6.42,6.42,0,0,0-1.79-1c-.05,0-.07,0-.07-.06s0-.06.08-.12l.1-.13c.05-.07.09-.1.13-.1h.05a7.58,7.58,0,0,1,1.85,1s.05,0,.05.07a.31.31,0,0,1-.06.12l-.13.15c-.06.08-.11.13-.14.13l-.07,0Zm1.06,2.78h3.42l1.68,0c.06,0,.08,0,.08.08l0,1.2v1.91l0,1.2c0,.05,0,.08-.08.08l-1.68,0h-3.42l-1.67,0c-.06,0-.08,0-.08-.08l0-1.2v-1.91l0-1.2c0-.05,0-.08.08-.08Zm-1.21,1.32H228v-.88h-5.86Zm0,.41v.9H228V145Zm0,1.31v.95H228v-.95Zm4.31-6a2.86,2.86,0,0,0,1.22,1.64,7.48,7.48,0,0,0,2.72,1,1.38,1.38,0,0,0-.23.33c0,.11-.08.17-.13.17l-.12,0a7.74,7.74,0,0,1-2.35-1,3.53,3.53,0,0,1-1.35-1.68c-.36,1.18-1.38,1.95-3,2.31l-.14,0c-.06,0-.12-.05-.17-.16a.78.78,0,0,0-.26-.25,5.46,5.46,0,0,0,2.47-1,2.42,2.42,0,0,0,.82-1.39h-1.49a5.44,5.44,0,0,1-.88.85.29.29,0,0,1-.14.07s-.08,0-.17-.1a.59.59,0,0,0-.3-.14,5.19,5.19,0,0,0,1.62-1.73,2,2,0,0,0,.22-.61l.5.15c.08,0,.11.07.11.11s0,.08-.1.14a1.59,1.59,0,0,0-.18.26c-.19.3-.3.5-.35.57h4a.92.92,0,0,0,.33,0l.11,0a.48.48,0,0,1,.26.14c.16.14.24.24.24.29s0,.08-.1.12a.82.82,0,0,0-.23.25,5.23,5.23,0,0,1-.69.85c-.08.08-.14.12-.17.12a.39.39,0,0,1-.17-.07.8.8,0,0,0-.33-.1,4.06,4.06,0,0,0,.95-1.09Zm.48,7.64a8.39,8.39,0,0,0,3.19,1.07,1.08,1.08,0,0,0-.26.32q-.07.15-.15.15l-.14,0a8.09,8.09,0,0,1-3.09-1.21s0,0,0-.05,0-.06.08-.1l.23-.13.11-.05.07,0Zm10.4-8.94a9.81,9.81,0,0,0,2.66,2.48,14.84,14.84,0,0,0,2.76,1.3,1,1,0,0,0-.29.34c0,.09-.08.14-.12.14l-.17-.06a11.4,11.4,0,0,1-5.17-3.8,11.53,11.53,0,0,1-2.42,2.46,15,15,0,0,1-2.56,1.49.3.3,0,0,1-.13,0s-.08,0-.14-.13a.88.88,0,0,0-.33-.26,11.45,11.45,0,0,0,5-3.82,1.83,1.83,0,0,0,.31-.63,2.66,2.66,0,0,1,.6.14c.1,0,.14.09.14.15s0,.06-.07.09Zm-.64,5.64V143h-.81l-1.52,0s-.08,0-.08-.08v-.39a.07.07,0,0,1,.08-.08l1.52,0h2.35l1.52,0a.07.07,0,0,1,.08.08v.39c0,.06,0,.08-.08.08l-1.52,0h-1v1.63h2.66l1.66,0c.06,0,.09,0,.09.08v.39c0,.06,0,.08-.09.08l-1.66,0h-2.66v3.3h3l1.65,0c.05,0,.08,0,.08.09v.39c0,.06,0,.09-.08.09l-1.65,0h-6.36l-1.64,0c-.06,0-.08,0-.08-.09v-.39c0-.06,0-.09.08-.09l1.64,0h2.81v-3.3h-2.41l-1.67,0c-.06,0-.09,0-.09-.08v-.39s0-.08.09-.08l1.67,0Zm-2.39,1.15s0,0,.06.06a8,8,0,0,1,.9,1.7l0,0s0,.07-.11.1l-.22.11a.37.37,0,0,1-.16.07s0,0,0-.06a7.57,7.57,0,0,0-.87-1.73.15.15,0,0,1,0-.06s0-.05.14-.1l.18-.08.13-.06Zm4.56,2.2a.67.67,0,0,0-.29-.13,8.87,8.87,0,0,0,1-1.69,1.73,1.73,0,0,0,.16-.49,2.25,2.25,0,0,1,.49.21c.07,0,.11.09.11.14s0,.08-.11.14a.86.86,0,0,0-.17.25,13.22,13.22,0,0,1-.92,1.55c-.06.07-.1.11-.13.11a.36.36,0,0,1-.14-.09Zm6.63-5.47,1.72-.22c.18-.61.33-1.18.45-1.7a3.92,3.92,0,0,0,.1-.89v-.29a3.81,3.81,0,0,1,.81.3.17.17,0,0,1,.09.14.18.18,0,0,1-.06.13.85.85,0,0,0-.22.38c-.18.66-.36,1.28-.54,1.85a8.82,8.82,0,0,1,1.23-.11,1.36,1.36,0,0,1,1.18.47,2.24,2.24,0,0,1,.33,1.37,9.21,9.21,0,0,1-.65,3.85,1.36,1.36,0,0,1-1.25.91,3.37,3.37,0,0,1-1.24-.22.13.13,0,0,1-.11-.15,1.63,1.63,0,0,0-.12-.58,3.41,3.41,0,0,0,1.36.33.88.88,0,0,0,.81-.61,8.66,8.66,0,0,0,.58-3.52,1.91,1.91,0,0,0-.22-1.07.8.8,0,0,0-.67-.26,9.63,9.63,0,0,0-1.38.13,35,35,0,0,1-2.45,5.71.09.09,0,0,1-.09.07s0,0-.06,0l-.21-.14-.18-.13a.05.05,0,0,1,0-.05.23.23,0,0,1,0-.09,29.57,29.57,0,0,0,2.35-5.25c-.72.1-1.24.18-1.57.24a2.18,2.18,0,0,0-.66.19.41.41,0,0,1-.16,0,.14.14,0,0,1-.14-.09,3.1,3.1,0,0,1-.23-.67h.29a7.72,7.72,0,0,0,.92-.06Zm7.92,2.32a6.46,6.46,0,0,0-1.9-3,2.41,2.41,0,0,1,.43-.28h0a.21.21,0,0,1,.11.05,6.43,6.43,0,0,1,1.9,2.9.84.84,0,0,1,0,.1.18.18,0,0,1,0,.09,2,2,0,0,1-.38.23.19.19,0,0,1-.09,0,.11.11,0,0,1-.1-.1Zm-.27-3.41a5.54,5.54,0,0,0-1.37-1.53l.35-.25h.1a5.39,5.39,0,0,1,1.36,1.46l0,0a.09.09,0,0,1,0,.06l-.29.24-.05,0a.14.14,0,0,1-.09,0Zm1-.79a5.54,5.54,0,0,0-1.36-1.48l.31-.24.07,0,.05,0a5.88,5.88,0,0,1,1.35,1.38.07.07,0,0,1,0,.06.09.09,0,0,1,0,.07l-.28.24a.06.06,0,0,1-.05,0,.08.08,0,0,1-.07,0Zm6.4.91a10.64,10.64,0,0,0,.68-1.24h-3.57l-1.6,0c-.06,0-.09,0-.09-.08v-.43c0-.05,0-.08.09-.08l1.6,0h6.9l1.61,0c.06,0,.08,0,.08.08v.43c0,.05,0,.08-.08.08l-1.61,0h-2.71a12.52,12.52,0,0,1-.64,1.18v6l0,1.76a.07.07,0,0,1-.08.08h-.46c-.06,0-.08,0-.08-.08l0-1.76v-5.16a13.76,13.76,0,0,1-4.44,3.76.42.42,0,0,1-.14.06s-.08,0-.14-.13a.73.73,0,0,0-.31-.29,16,16,0,0,0,2.22-1.38,11.49,11.49,0,0,0,2.72-2.81Zm4.12,2.85a9.63,9.63,0,0,0,2,1.18,1.81,1.81,0,0,0-.26.34c-.05.09-.09.14-.13.14a.42.42,0,0,1-.16-.07,11.69,11.69,0,0,1-3.91-3.31.06.06,0,0,1,0-.05s0-.07.12-.14l.16-.11.1,0s.05,0,.07,0a10,10,0,0,0,2,2Zm8.74,4a9.06,9.06,0,0,0,1.81.16,23.87,23.87,0,0,0,3.26-.22.77.77,0,0,0-.18.4c0,.1,0,.16-.08.18l-.16,0a23,23,0,0,1-2.71.14,6.44,6.44,0,0,1-3.9-1,5.33,5.33,0,0,1-1.45-1.7,7.63,7.63,0,0,1-1.63,2.72c-.07.07-.11.11-.14.11s-.07,0-.15-.1a1.2,1.2,0,0,0-.34-.17,7.48,7.48,0,0,0,2.15-4.14,4.22,4.22,0,0,0,.06-.64.41.41,0,0,0,0-.12,3.06,3.06,0,0,1,.58.12c.09,0,.13.06.13.11a.36.36,0,0,1-.08.17.83.83,0,0,0-.16.39c-.06.31-.13.62-.21,1a4.7,4.7,0,0,0,1.5,1.85,4,4,0,0,0,1.16.59v-5.13h-1.46l-1.66,0c-.06,0-.08,0-.08-.08l0-1.08v-1.43l0-1.09c0-.06,0-.08.08-.08l1.66,0h3.47l1.67,0c.07,0,.1,0,.1.08l0,1.09V142l0,1.08c0,.06,0,.08-.1.08l-1.67,0h-1.46v2.16h2.2l1.68,0c.05,0,.07,0,.07.08v.39c0,.05,0,.08-.07.08l-1.68,0h-2.2ZM270.19,140v2.71H276V140Zm12.43.55a4.86,4.86,0,0,0-.11-1.06,5.65,5.65,0,0,1,.85.16.18.18,0,0,1,.15.17,1.8,1.8,0,0,1-.09.27,4.81,4.81,0,0,0-.15,1.16q-.18,3.6-.18,5.13a2.22,2.22,0,0,0,.4,1.55,1.45,1.45,0,0,0,1.11.35,5.73,5.73,0,0,0,4.27-2.26,1.78,1.78,0,0,0,.18.55.41.41,0,0,1,0,.12.31.31,0,0,1-.11.17,6.38,6.38,0,0,1-4.52,2,1.9,1.9,0,0,1-1.59-.62,2.89,2.89,0,0,1-.45-1.79c0-.57.07-2.33.19-5.31,0-.25,0-.46,0-.63Zm13.42.34c-.09.32-.15.56-.2.72a14.24,14.24,0,0,0,2-.52h.06s.06,0,.07.08,0,.31,0,.36,0,.15-.1.17a18.14,18.14,0,0,1-2.21.51,48.29,48.29,0,0,1-2.33,6.47s0,.07-.07.07h-.07l-.46-.21s0,0,0-.06a.19.19,0,0,1,0-.07,34.84,34.84,0,0,0,2.28-6.1,21.36,21.36,0,0,1-2.53.15c-.1,0-.16,0-.17-.09a3.51,3.51,0,0,1-.07-.53,5.23,5.23,0,0,0,.71,0,17.06,17.06,0,0,0,2.23-.17c.12-.49.24-1,.33-1.49a4.49,4.49,0,0,0,.11-.9,1.48,1.48,0,0,0,0-.22,2.64,2.64,0,0,1,.84.24.11.11,0,0,1,.07.11.26.26,0,0,1-.09.18,1.15,1.15,0,0,0-.21.47l-.21.81Zm1.31,7.24a2,2,0,0,1-.58-1.59l.33,0h.1a.1.1,0,0,1,.11.1,1.41,1.41,0,0,0,.71,1.26,3.9,3.9,0,0,0,1.7.27,9.91,9.91,0,0,0,1.69-.15h.06s.08,0,.09.09a3.19,3.19,0,0,1,0,.42.12.12,0,0,1-.12.13,8.26,8.26,0,0,1-1.52.14,6.41,6.41,0,0,1-1.63-.16,2.39,2.39,0,0,1-1-.48Zm2.25-4.43a7.75,7.75,0,0,0-2,.26c0-.1,0-.26,0-.48a.14.14,0,0,1,.13-.15,8.19,8.19,0,0,1,1.87-.24,13.83,13.83,0,0,1,1.69.11.15.15,0,0,1,.14.13.38.38,0,0,1,0,.1c0,.07,0,.16,0,.27s0,.13-.09.13h0a11.14,11.14,0,0,0-1.72-.12Z"/><path class="cls-5" d="M189,219.27a4.27,4.27,0,0,0-.13-1,4.64,4.64,0,0,1,.84.13.14.14,0,0,1,.12.14.23.23,0,0,1,0,.11,1.09,1.09,0,0,0-.11.54v.38c0,.32,0,.56,0,.72h1.62c.91,0,1.67,0,2.26-.06h0c.06,0,.09.05.09.14a1.27,1.27,0,0,1,0,.2,1,1,0,0,1,0,.19c0,.07,0,.11,0,.13h-.12l-2.26,0h-1.63a7.46,7.46,0,0,1-.51,2.54,5.16,5.16,0,0,1-2,2.37.26.26,0,0,1-.1,0,.28.28,0,0,1-.12,0,1.63,1.63,0,0,0-.56-.28,4.79,4.79,0,0,0,2.11-2.28,6.15,6.15,0,0,0,.48-2.34h-2.23c-.77,0-1.45,0-2,0-.1,0-.16-.06-.18-.17s0-.12,0-.27,0-.2,0-.25c.7,0,1.47.05,2.3.05H189a3.22,3.22,0,0,0,0-.33v-.68Zm1.84-2.4a2,2,0,0,0,.69-.41,3.45,3.45,0,0,1,.53.39c.09.09.14.16.14.22s-.08.12-.24.16a6.65,6.65,0,0,0-.67.15,23.47,23.47,0,0,1-2.48.64c-.91.18-1.94.33-3.09.44h0a.16.16,0,0,1-.17-.11,1.06,1.06,0,0,0-.33-.42,26.71,26.71,0,0,0,3.45-.46,14.67,14.67,0,0,0,2.21-.6Zm5.84,4.58a3.06,3.06,0,0,1-.09-.74,21.16,21.16,0,0,0,2.47.1h3.81q1.68,0,2.58,0c.11,0,.17,0,.17.13v.45c0,.1-.06.15-.17.15-.42,0-.94,0-1.58,0h-5.65l-1.37.1a.16.16,0,0,1-.17-.14Zm15.54-3.33a6.38,6.38,0,0,0,.29-1.56,3.5,3.5,0,0,1,.9.36.15.15,0,0,1,.07.12.26.26,0,0,1-.1.19,2.34,2.34,0,0,0-.44.86,59.94,59.94,0,0,1-2.29,6c2-.14,3.79-.33,5.44-.59a12.27,12.27,0,0,0-1.5-2.16,2.88,2.88,0,0,1,.41-.25.14.14,0,0,1,.1,0s.07,0,.11.08a17.32,17.32,0,0,1,2.28,3.64.13.13,0,0,1,0,.08.14.14,0,0,1-.08.11,3.76,3.76,0,0,1-.41.23l-.05,0s-.09,0-.13-.12a9.12,9.12,0,0,0-.5-1q-2.69.41-6,.72a3.37,3.37,0,0,0-1.22.25.29.29,0,0,1-.17.06.13.13,0,0,1-.14-.09,7,7,0,0,1-.26-.83,5.79,5.79,0,0,0,.61,0l.79,0a55.21,55.21,0,0,0,2.25-6Zm9.29,1.37,1.72-.22c.18-.61.33-1.18.45-1.7a3.92,3.92,0,0,0,.1-.89v-.29a3.81,3.81,0,0,1,.81.3.17.17,0,0,1,.09.14.18.18,0,0,1-.06.13.85.85,0,0,0-.22.38c-.18.66-.36,1.28-.54,1.85a8.82,8.82,0,0,1,1.23-.11,1.36,1.36,0,0,1,1.18.47,2.24,2.24,0,0,1,.33,1.37,9.21,9.21,0,0,1-.65,3.85,1.36,1.36,0,0,1-1.25.91,3.37,3.37,0,0,1-1.24-.22.13.13,0,0,1-.11-.15,1.63,1.63,0,0,0-.12-.58,3.41,3.41,0,0,0,1.36.33.88.88,0,0,0,.81-.61,8.66,8.66,0,0,0,.58-3.52,1.91,1.91,0,0,0-.22-1.07.8.8,0,0,0-.67-.26,9.63,9.63,0,0,0-1.38.13,35,35,0,0,1-2.45,5.71.09.09,0,0,1-.09.07s0,0-.06,0l-.21-.14-.18-.13a.05.05,0,0,1,0-.05.23.23,0,0,1,0-.09,29.57,29.57,0,0,0,2.35-5.25c-.72.1-1.24.18-1.57.24a2.18,2.18,0,0,0-.66.19.41.41,0,0,1-.16,0,.14.14,0,0,1-.14-.09,3.1,3.1,0,0,1-.23-.67h.29a7.72,7.72,0,0,0,.92-.06Zm7.92,2.32a6.46,6.46,0,0,0-1.9-3,2.41,2.41,0,0,1,.43-.28h0a.21.21,0,0,1,.11.05,6.43,6.43,0,0,1,1.9,2.9.84.84,0,0,1,0,.1.18.18,0,0,1,0,.09,2,2,0,0,1-.38.23.19.19,0,0,1-.09,0,.11.11,0,0,1-.1-.1Zm-.27-3.41a5.54,5.54,0,0,0-1.37-1.53l.35-.25h.1a5.39,5.39,0,0,1,1.36,1.46l0,0a.09.09,0,0,1,0,.06l-.29.24-.05,0a.14.14,0,0,1-.09,0Zm1-.79a5.54,5.54,0,0,0-1.36-1.48l.31-.24.07,0,.05,0a5.88,5.88,0,0,1,1.35,1.38.07.07,0,0,1,0,.06.09.09,0,0,1,0,.07l-.28.24a.06.06,0,0,1-.05,0,.08.08,0,0,1-.07,0Zm6.4.91a10.64,10.64,0,0,0,.68-1.24h-3.57l-1.6,0c-.06,0-.09,0-.09-.08v-.43c0-.05,0-.08.09-.08l1.6,0h6.9l1.61,0c.06,0,.08,0,.08.08v.43c0,.05,0,.08-.08.08l-1.61,0h-2.71a12.52,12.52,0,0,1-.64,1.18v6l0,1.76a.07.07,0,0,1-.08.08h-.46c-.06,0-.08,0-.08-.08l0-1.76v-5.16a13.76,13.76,0,0,1-4.44,3.76.42.42,0,0,1-.14.06s-.08,0-.14-.13a.73.73,0,0,0-.31-.29,16,16,0,0,0,2.22-1.38,11.49,11.49,0,0,0,2.72-2.81Zm4.12,2.85a9.63,9.63,0,0,0,2,1.18,1.81,1.81,0,0,0-.26.34c-.05.09-.09.14-.13.14a.42.42,0,0,1-.16-.07,11.69,11.69,0,0,1-3.91-3.31.06.06,0,0,1,0-.05s0-.07.12-.14l.16-.11.1,0s.05,0,.07,0a10,10,0,0,0,2,2Zm8.94,4.22c1.63,0,3.33-.09,5.1-.25a1,1,0,0,0-.18.42.28.28,0,0,1-.06.17l-.16,0c-1.48.11-2.95.17-4.39.17a7.72,7.72,0,0,1-3-.41,2.36,2.36,0,0,1-1.12-1.22,15.26,15.26,0,0,1-1.21,1.21,2.3,2.3,0,0,0-.27.26c0,.07-.06.1-.1.1a.21.21,0,0,1-.14-.08,3.89,3.89,0,0,1-.3-.5,6,6,0,0,0,.74-.48,7.52,7.52,0,0,0,1-1v-3.07h-.92l-.76,0c-.07,0-.1,0-.1-.08v-.4c0-.05,0-.08.1-.08l.76,0h.58l.81,0a.07.07,0,0,1,.08.08l0,1.12V224a2.17,2.17,0,0,0,1.07,1.24,6.85,6.85,0,0,0,2.45.32Zm-5-9.41.06,0a9.26,9.26,0,0,1,1.32,1.66.09.09,0,0,1,0,0s0,.06-.11.12l-.17.13a.29.29,0,0,1-.14.07s-.05,0-.08-.06a8,8,0,0,0-1.26-1.65.15.15,0,0,1,0-.06s0-.06.11-.11l.15-.12a.22.22,0,0,1,.12-.06Zm5.6.52v-.16a3.47,3.47,0,0,0-.08-.87l.62.06c.07,0,.11.05.11.1a.28.28,0,0,1-.06.18,1.1,1.1,0,0,0-.05.44v.25h1.77l1.69,0c.06,0,.09,0,.09.08v.38c0,.05,0,.08-.09.08l-1.69,0h-3.88l-1.7,0c-.06,0-.09,0-.09-.08v-.38s0-.08.09-.08l1.7,0Zm1.09,1.93a6.72,6.72,0,0,0,.32-.76,1.71,1.71,0,0,0,.11-.47c.19,0,.37.1.53.16a.11.11,0,0,1,.08.11.13.13,0,0,1,0,.12.53.53,0,0,0-.17.24c-.08.16-.18.36-.31.6h.2l1.63,0s.08,0,.08.09l0,1.5v3.65a.86.86,0,0,1-.25.72,2.43,2.43,0,0,1-1.19.2.29.29,0,0,1-.17,0,.37.37,0,0,1-.06-.15,1.52,1.52,0,0,0-.16-.4,6.61,6.61,0,0,0,.85,0c.3,0,.45-.15.45-.47v-4.68h-5.32v4l0,1.65a.08.08,0,0,1-.09.09h-.39a.08.08,0,0,1-.09-.09l0-1.63v-3l0-1.44a.08.08,0,0,1,.09-.09l1.62,0h.19a4.29,4.29,0,0,0-.47-1l0-.06s0-.05.12-.08l.19-.09.09,0s.05,0,.08.06a5.69,5.69,0,0,1,.55,1.16Zm-.59,3h.25l1,0a.07.07,0,0,1,.08.08l0,.75V223l0,.75a.07.07,0,0,1-.08.08l-1,0h-.89l-1,0a.07.07,0,0,1-.08-.08l0-.75v-.53l0-.75a.07.07,0,0,1,.08-.08l1,0h.17v-.94h-.54l-1.26,0a.08.08,0,0,1-.09-.09v-.3c0-.05,0-.07.09-.07h1.8v-.12a3.58,3.58,0,0,0-.07-.81l.53.06c.07,0,.1,0,.1.09a.35.35,0,0,1,0,.14,1.15,1.15,0,0,0-.06.41v.23h1.88c.06,0,.08,0,.08.07v.3c0,.06,0,.09-.08.09l-1.24,0h-.64Zm-1.24.42v1.31h2.09V222Zm7.71-2.3-.08,0c-.42.08-.79.16-1.1.24l-.3.06h0s0,0-.06-.08l-.07-.38v0s0-.05.07-.05c.35-.06.81-.14,1.4-.27l.18,0v-1.34a12.85,12.85,0,0,0-.07-1.8,4.3,4.3,0,0,1,.61.07q.15,0,.15.09a.49.49,0,0,1-.08.22,10.38,10.38,0,0,0,0,1.44v1.2l1.23-.26c.45-.09.81-.18,1.1-.26l.21-.06h.11s0,0,.05.08l.07.38v0s0,.06-.07.07-.57.11-1.41.29l-1.29.27v2.95c0,.29,0,.47.17.54a1.4,1.4,0,0,0,.69.11,1.67,1.67,0,0,0,.89-.18.89.89,0,0,0,.31-.58,8.69,8.69,0,0,0,.09-1,1.23,1.23,0,0,0,.33.23c.11,0,.16.11.16.17a.34.34,0,0,1,0,.09,3.61,3.61,0,0,1-.2,1.11,1,1,0,0,1-.35.43,2.39,2.39,0,0,1-1.27.26,2.57,2.57,0,0,1-1-.14.89.89,0,0,1-.36-.85Zm5,.07c.06-.64.09-1.44.09-2.42h-.48l-1.54,0c-.06,0-.09,0-.09-.08v-.41s0-.07.09-.07l1.54,0h2.53l1.56,0c.06,0,.09,0,.09.08,0,.24,0,.58,0,1a38.39,38.39,0,0,1-.44,6.27,2.59,2.59,0,0,1-.6,1.48,1.3,1.3,0,0,1-.94.33,8.78,8.78,0,0,1-1.06-.06c-.1,0-.15,0-.17-.05a.58.58,0,0,1,0-.17,1.28,1.28,0,0,0-.14-.43,9.14,9.14,0,0,0,1.38.14.76.76,0,0,0,.68-.35,2.7,2.7,0,0,0,.33-1,48.13,48.13,0,0,0,.43-6.74h-2.54a15.69,15.69,0,0,1-.7,5.11,6.65,6.65,0,0,1-3.58,3.65.49.49,0,0,1-.17.06s-.08,0-.14-.11a.94.94,0,0,0-.38-.27,6.24,6.24,0,0,0,3.76-3.54,9.55,9.55,0,0,0,.55-2.48Zm9.79-2c-.09.31-.15.55-.19.71a11.62,11.62,0,0,0,2-.52h.07s.06,0,.07.09,0,.31,0,.36,0,.15-.09.16a20.39,20.39,0,0,1-2.21.52,51.83,51.83,0,0,1-2.33,6.47.09.09,0,0,1-.08.06h-.06l-.46-.21a.05.05,0,0,1,0-.06.11.11,0,0,1,0-.07,35.81,35.81,0,0,0,2.27-6.09,21,21,0,0,1-2.53.15c-.1,0-.15,0-.17-.1s-.06-.36-.07-.52c.23,0,.46,0,.71,0a15.48,15.48,0,0,0,2.23-.17c.13-.48.24-1,.34-1.49a4.32,4.32,0,0,0,.1-.89,1.62,1.62,0,0,0,0-.23,3.37,3.37,0,0,1,.85.24.13.13,0,0,1,.07.12.24.24,0,0,1-.1.18,1.11,1.11,0,0,0-.2.47c-.06.18-.13.45-.22.81Zm1.32,7.24a2,2,0,0,1-.59-1.6l.34,0h.1c.06,0,.09,0,.1.11a1.43,1.43,0,0,0,.71,1.26,4,4,0,0,0,1.71.27,9.8,9.8,0,0,0,1.68-.15h.07c.05,0,.07,0,.08.09a3.29,3.29,0,0,1,0,.42.12.12,0,0,1-.12.13,8.37,8.37,0,0,1-1.53.14,6.32,6.32,0,0,1-1.62-.16,2.33,2.33,0,0,1-1-.48Zm2.25-4.43a7.81,7.81,0,0,0-2,.25,4.55,4.55,0,0,1,0-.47c0-.08.05-.13.14-.15a8.06,8.06,0,0,1,1.87-.24,13.92,13.92,0,0,1,1.69.1.17.17,0,0,1,.14.14v.1a1.53,1.53,0,0,1,0,.27c0,.08,0,.12-.08.12h0a11.14,11.14,0,0,0-1.72-.12Zm1.46-2a5.24,5.24,0,0,0-1.38-1.52l.36-.25a.06.06,0,0,1,.05,0,0,0,0,0,1,0,0,5.05,5.05,0,0,1,1.36,1.45.09.09,0,0,1,0,0s0,0,0,.05l-.29.24-.06,0s0,0-.07,0Zm1-.79a5.66,5.66,0,0,0-1.35-1.48l.31-.24.06,0a.05.05,0,0,1,0,0,5.74,5.74,0,0,1,1.36,1.38l0,.06a.08.08,0,0,1,0,.07l-.27.24a.09.09,0,0,1-.06,0s0,0-.07,0Zm3.58,4.08a4.18,4.18,0,0,1-.35-.64,11.23,11.23,0,0,0,1.82-.46,11.7,11.7,0,0,1,3.15-.67,2.5,2.5,0,0,1,1.87.67,2,2,0,0,1,.59,1.54,2.54,2.54,0,0,1-.42,1.49,3.22,3.22,0,0,1-1.1.92,7.86,7.86,0,0,1-2.52.8h-.06a.13.13,0,0,1-.12-.08,1.36,1.36,0,0,0-.37-.4,8.13,8.13,0,0,0,2.66-.76,2.16,2.16,0,0,0,1.31-2,1.5,1.5,0,0,0-.6-1.32,2.3,2.3,0,0,0-1.33-.34,10.48,10.48,0,0,0-3.61.95,2.86,2.86,0,0,0-.55.26.4.4,0,0,1-.2.12.2.2,0,0,1-.17-.1ZM296,217.84c-.09.32-.15.56-.2.72a14.24,14.24,0,0,0,2-.52h.06s.06,0,.07.08,0,.31,0,.36,0,.15-.1.17a18.14,18.14,0,0,1-2.21.51,48.29,48.29,0,0,1-2.33,6.47s0,.07-.07.07h-.07l-.46-.21s0,0,0-.06a.19.19,0,0,1,0-.07,34.84,34.84,0,0,0,2.28-6.1,21.36,21.36,0,0,1-2.53.15c-.1,0-.16,0-.17-.09a3.51,3.51,0,0,1-.07-.53,5.23,5.23,0,0,0,.71,0,17.06,17.06,0,0,0,2.23-.17c.12-.49.24-1,.33-1.49a4.49,4.49,0,0,0,.11-.9,1.48,1.48,0,0,0,0-.22,2.64,2.64,0,0,1,.84.24.11.11,0,0,1,.07.11.26.26,0,0,1-.09.18,1.15,1.15,0,0,0-.21.47l-.21.81Zm1.31,7.24a2,2,0,0,1-.58-1.59l.33,0h.1a.1.1,0,0,1,.11.1,1.41,1.41,0,0,0,.71,1.26,3.9,3.9,0,0,0,1.7.27,9.91,9.91,0,0,0,1.69-.15h.06s.08,0,.09.09a3.19,3.19,0,0,1,0,.42.12.12,0,0,1-.12.13,8.26,8.26,0,0,1-1.52.14,6.41,6.41,0,0,1-1.63-.16,2.39,2.39,0,0,1-1-.48Zm2.25-4.43a7.75,7.75,0,0,0-2,.26c0-.1,0-.26,0-.48a.14.14,0,0,1,.13-.15,8.19,8.19,0,0,1,1.87-.24,13.83,13.83,0,0,1,1.69.11.15.15,0,0,1,.14.13.38.38,0,0,1,0,.1c0,.07,0,.16,0,.27s0,.13-.09.13h0a11.14,11.14,0,0,0-1.72-.12Z"/><path class="cls-5" d="M234,303a6.87,6.87,0,0,0,.95-.3v-2.06h-1a6.06,6.06,0,0,1-.56,2.35,3.9,3.9,0,0,1-1.32,1.34.54.54,0,0,1-.15.08s-.07,0-.12-.1a.87.87,0,0,0-.28-.25,3.52,3.52,0,0,0,1.47-1.44,4.92,4.92,0,0,0,.44-2h-.91a.07.07,0,0,1-.08-.08l0-.79v-.64l0-.78c0-.06,0-.08.08-.08l1.25,0h1.33l1.24,0c.06,0,.09,0,.09.08l0,.78v.64l0,.79c0,.05,0,.08-.09.08l-.91,0v1.83a17.41,17.41,0,0,0,1.7-.88,1,1,0,0,0,0,.18v.14a.59.59,0,0,1,0,.11c0,.06-.06.12-.18.19a20,20,0,0,1-2,1,1.37,1.37,0,0,0-.45.24c-.07.06-.11.09-.14.09a.16.16,0,0,1-.13-.08A3.89,3.89,0,0,1,234,303Zm1-5.91c.13-.31.25-.61.35-.92a2,2,0,0,0,.08-.47,3.68,3.68,0,0,1,.48.14c.09,0,.13.08.13.11a.18.18,0,0,1-.09.15.67.67,0,0,0-.16.25c-.11.26-.22.5-.34.74l1.3,0c.06,0,.08,0,.08.08v.33c0,.06,0,.08-.08.08l-1.44,0h-2l-1.46,0c-.06,0-.09,0-.09-.08v-.33s0-.08.09-.08l1.46,0h0a8.36,8.36,0,0,0-.38-1.17l0-.05s.05,0,.15-.07l.14,0,.1,0s.05,0,.08.07a7.05,7.05,0,0,1,.41,1.29Zm-.79-2.13v-.41a3.54,3.54,0,0,0-.07-.83,4.71,4.71,0,0,1,.58.06c.09,0,.13,0,.13.1a.21.21,0,0,1,0,.14,1,1,0,0,0-.07.48V295h.51l1.34,0c.06,0,.09,0,.09.08v.34c0,.05,0,.08-.09.08l-1.34,0h-1.69l-1.36,0c-.06,0-.08,0-.08-.08V295c0-.06,0-.08.08-.08l1.36,0ZM233,300.21h2.93v-1.46H233Zm5.95.44a4.44,4.44,0,0,1-.79,2.53,4.14,4.14,0,0,1-2,1.23.34.34,0,0,1-.13,0s-.09,0-.15-.13a1.06,1.06,0,0,0-.28-.28,3.64,3.64,0,0,0,2.16-1.25,3.75,3.75,0,0,0,.63-2.14h-.8c-.06,0-.08,0-.08-.08l0-.79v-.64l0-.78c0-.06,0-.08.08-.08l1.26,0h1.4l1.26,0c.06,0,.09,0,.09.08l0,.78v.64l0,.79c0,.05,0,.08-.09.08l-1.16,0v2.6a.83.83,0,0,0,.05.34.27.27,0,0,0,.18.11,2.39,2.39,0,0,0,.57.05,1.09,1.09,0,0,0,.65-.14.49.49,0,0,0,.19-.33,5.32,5.32,0,0,0,.11-1,1.58,1.58,0,0,0,.32.22c.12.05.18.11.18.17a.39.39,0,0,1,0,.09,3.28,3.28,0,0,1-.2.94.73.73,0,0,1-.26.32,1.69,1.69,0,0,1-1,.21,2.71,2.71,0,0,1-1-.12c-.23-.08-.35-.31-.35-.69v-2.79Zm1.19-3.55c.13-.29.25-.58.35-.88a1.86,1.86,0,0,0,.09-.48,3.93,3.93,0,0,1,.45.13c.09,0,.14.08.14.12s0,.08-.09.12a.75.75,0,0,0-.14.25c-.1.23-.21.47-.34.74h.19l1.45,0a.07.07,0,0,1,.08.08v.33c0,.06,0,.08-.08.08l-1.45,0h-2.07l-1.46,0c-.06,0-.09,0-.09-.08v-.33s0-.08.09-.08l1.22,0a4.31,4.31,0,0,0-.4-1.18.43.43,0,0,0,0-.05s.05-.06.14-.08l.15,0,.1,0s.06,0,.08.07a4.74,4.74,0,0,1,.41,1.3Zm-.84-2.13v-.41a4.86,4.86,0,0,0-.07-.83,3.55,3.55,0,0,1,.57.06c.09,0,.14,0,.14.1a.18.18,0,0,1-.06.14,1.11,1.11,0,0,0-.07.46V295h.78l1.4,0c.05,0,.08,0,.08.08v.34a.07.07,0,0,1-.08.08l-1.4,0h-1.83l-1.38,0c-.06,0-.09,0-.09-.08V295c0-.06,0-.08.09-.08l1.38,0Zm-1.23,5.24h3v-1.46h-3ZM249.38,294l0,0a11.38,11.38,0,0,0,5.46,4.23,1.46,1.46,0,0,0-.29.34c-.05.1-.1.15-.13.15l-.15-.06a11.55,11.55,0,0,1-5.18-4.24,12.78,12.78,0,0,1-5,4.31l-.14.06s-.08,0-.13-.13a1.45,1.45,0,0,0-.31-.29,12.41,12.41,0,0,0,3.21-2.06,9.67,9.67,0,0,0,1.81-2.13,2.16,2.16,0,0,0,.29-.63l.58.12c.09,0,.14.07.14.12a.12.12,0,0,1-.07.12l-.06.05Zm-3,9.74v.58c0,.05,0,.07-.08.07h-.42c-.06,0-.09,0-.09-.07l0-2.07v-1l0-1.3c0-.06,0-.08.09-.08l1.65,0h3.2l1.65,0c.06,0,.09,0,.09.08l0,1.15v1.07l0,2c0,.05,0,.08-.09.08H252a.07.07,0,0,1-.08-.08v-.52Zm0-.49h5.51v-2.83h-5.51Zm1.78-5.52h1.92l1.43,0c.06,0,.08,0,.08.08v.39c0,.05,0,.08-.08.08l-1.43,0h-1.92l-1.43,0c-.06,0-.09,0-.09-.08v-.39c0-.05,0-.08.09-.08Zm9.43-2.75v-.14a3.21,3.21,0,0,1,.7.29c.09.05.13.09.13.14a.42.42,0,0,1-.08.22,1.38,1.38,0,0,0-.22.49,17.91,17.91,0,0,0-.59,4.24,10.67,10.67,0,0,0,.21,2.3c.11-.27.27-.63.47-1.08s.36-.8.46-1a2.38,2.38,0,0,0,.24.37.21.21,0,0,1,.05.11.46.46,0,0,1-.06.18c-.27.63-.54,1.27-.8,1.94a.78.78,0,0,0-.05.28l0,.24s0,.06-.06.08a1.29,1.29,0,0,1-.41.1.16.16,0,0,1-.13-.11,6.94,6.94,0,0,1-.41-1.69,13.25,13.25,0,0,1-.13-1.75,21.19,21.19,0,0,1,.53-4.16,5.34,5.34,0,0,0,.12-1Zm3.17,7.27a1.81,1.81,0,0,1-.53-1.37l.51,0s.08,0,.08.1c0,.91.76,1.37,2.21,1.37a18,18,0,0,0,2.38-.17h.05s.07,0,.07.11a2.73,2.73,0,0,1,0,.41.2.2,0,0,1,0,.11.19.19,0,0,1-.11,0,21.5,21.5,0,0,1-2.22.12,5.7,5.7,0,0,1-1.54-.17,2.09,2.09,0,0,1-.91-.51Zm2.4-5.6a14.92,14.92,0,0,0-2.53.24v-.48a.16.16,0,0,1,.13-.17,15.64,15.64,0,0,1,2.54-.21c.67,0,1.22,0,1.66,0,.1,0,.15.06.15.13v.41c0,.06,0,.1-.07.1h0q-.81-.06-1.83-.06Zm5,.85a1,1,0,0,0-.28-.27,8,8,0,0,0,3.08-2.75,3.3,3.3,0,0,0,.43-.9,3.66,3.66,0,0,1,.53.17c.08,0,.12.08.12.14a.17.17,0,0,1-.09.13.89.89,0,0,0-.27.3l-.14.22-.13.19h2.72a.7.7,0,0,0,.24,0,.19.19,0,0,1,.1,0,.54.54,0,0,1,.28.16c.14.11.21.2.21.25s0,.1-.15.16a.84.84,0,0,0-.27.27,13.68,13.68,0,0,1-1,1.17H275l1.69,0a.08.08,0,0,1,.09.09l0,1.37v2.72l0,1.37c0,.05,0,.08-.09.08l-1.69,0h-3.53l-1.69,0a.07.07,0,0,1-.08-.08l0-1.37v-2.72l0-1.36s0-.06,0-.07a13.48,13.48,0,0,1-1.25.89.56.56,0,0,1-.14.08s-.07-.05-.13-.15Zm2.8,5.42a1.49,1.49,0,0,0,.39-.34,2.5,2.5,0,0,1,.46.28c.06,0,.09.08.09.13s0,.09-.12.11a.94.94,0,0,0-.32.15,9.61,9.61,0,0,1-2.86,1.14l-.14,0s-.09,0-.12-.13a.93.93,0,0,0-.24-.34,8.66,8.66,0,0,0,2.86-1Zm.11-7.72a8.1,8.1,0,0,1-1.37,1.45h.05l1.69,0h1.49a13.67,13.67,0,0,0,1.17-1.48Zm5.13,2h-6v1.21h6Zm-6,1.65V300h6v-1.24Zm0,3h6v-1.29h-6Zm4.84.85a7.84,7.84,0,0,0,3.19,1.3,1.29,1.29,0,0,0-.24.35c0,.1-.09.15-.13.15l-.14,0a8.85,8.85,0,0,1-3.1-1.42s0,0,0-.05,0-.06.11-.13l.19-.16a.22.22,0,0,1,.1,0l.06,0Zm6.54-7.77v-.36a3.4,3.4,0,0,1,.71.29c.08.05.13.11.13.16a1.32,1.32,0,0,1-.07.18,2.31,2.31,0,0,0-.2.63,24.77,24.77,0,0,0-.44,4.1,9.68,9.68,0,0,0,.31,2.5c.25-.62.55-1.32.89-2.1a1.57,1.57,0,0,0,.24.45.21.21,0,0,1,.05.11,1.11,1.11,0,0,1-.09.23c-.28.62-.52,1.23-.72,1.81a2,2,0,0,0-.06.28l0,.21a.08.08,0,0,1-.05.08,1.62,1.62,0,0,1-.35.11h0a.11.11,0,0,1-.11-.09,6.2,6.2,0,0,1-.51-1.69,9.37,9.37,0,0,1-.18-1.75,22.13,22.13,0,0,1,.31-3.58,12.13,12.13,0,0,0,.15-1.58Zm4,2.21c.45,0,1,0,1.61-.09,0-1,0-1.67-.06-1.9a2.43,2.43,0,0,0-.15-.76,3,3,0,0,1,.82.09.14.14,0,0,1,.11.12.23.23,0,0,1,0,.14,1.28,1.28,0,0,0-.09.48c0,.24,0,.82,0,1.77a11.21,11.21,0,0,0,1.78-.32l.06,0a.07.07,0,0,1,.07.07,1.83,1.83,0,0,1,.05.43c0,.08,0,.12-.08.13-.6.12-1.22.21-1.86.28l0,1.72a10.44,10.44,0,0,1-.1,1.73,4.52,4.52,0,0,1-.38,1.23,4.19,4.19,0,0,1-1.68,1.83.3.3,0,0,1-.16.07.21.21,0,0,1-.13-.07,1.08,1.08,0,0,0-.42-.23,4.49,4.49,0,0,0,1.26-.94,3.41,3.41,0,0,0,.65-1.1,6.87,6.87,0,0,0,.35-2.43v-.34l0-1.4c-.57.05-1.15.07-1.74.07h-.48l-.51,0c-.1,0-.16-.05-.17-.13a3.64,3.64,0,0,1,0-.48,12.63,12.63,0,0,0,1.3.06Zm10.15,1c.83-.91,1.65-1.85,2.46-2.83-.83.12-1.91.3-3.23.54a1.63,1.63,0,0,0-.39.13.63.63,0,0,1-.21.05.19.19,0,0,1-.17-.11,4.15,4.15,0,0,1-.25-.67,4.14,4.14,0,0,0,.58,0l.45,0c1-.11,2-.26,3.07-.44a.62.62,0,0,0,.27-.09.25.25,0,0,1,.14-.07.43.43,0,0,1,.21.09,3.54,3.54,0,0,1,.43.41.27.27,0,0,1,.06.17.2.2,0,0,1-.17.2,1.48,1.48,0,0,0-.59.45q-1.27,1.44-3.24,3.43l0,.05a5.07,5.07,0,0,1,2.83-1,2.71,2.71,0,0,1,2.09.8,2.45,2.45,0,0,1,.63,1.74,2.66,2.66,0,0,1-1.14,2.26,4.49,4.49,0,0,1-2.73.77,2.39,2.39,0,0,1-1.59-.46,1.08,1.08,0,0,1-.39-.84,1.14,1.14,0,0,1,.38-.87,1.37,1.37,0,0,1,.92-.32,1.85,1.85,0,0,1,1.39.57,2.41,2.41,0,0,1,.62,1.21,2.68,2.68,0,0,0,1.41-.88,2.27,2.27,0,0,0,.48-1.46,1.88,1.88,0,0,0-.72-1.56,2.22,2.22,0,0,0-1.41-.47,5.57,5.57,0,0,0-3.39,1.4,11.6,11.6,0,0,0-1.07.94.17.17,0,0,1-.11.06.12.12,0,0,1-.08,0l-.33-.35a.13.13,0,0,1,0-.07.12.12,0,0,1,.06-.09A36.56,36.56,0,0,0,295.8,298Zm1,5.38a4.53,4.53,0,0,0,.89-.08,1.86,1.86,0,0,0-.51-1.05,1.19,1.19,0,0,0-.88-.36c-.55,0-.82.23-.82.68a.68.68,0,0,0,.4.6,1.77,1.77,0,0,0,.92.21Z"/><path class="cls-5" d="M186.34,371.53c-.28.76-.57,1.46-.86,2.07v5.91l0,1.88c0,.05,0,.07-.08.07H185c-.05,0-.08,0-.08-.07l0-1.88v-3.09c0-.64,0-1.27,0-1.88a14.43,14.43,0,0,1-1.11,1.59c-.06.07-.1.11-.12.11s-.06,0-.11-.11a1,1,0,0,0-.25-.27,11.74,11.74,0,0,0,1.54-2.26,15,15,0,0,0,.88-2.11,3.4,3.4,0,0,0,.17-.83,3.36,3.36,0,0,1,.56.18c.08,0,.12.08.12.13a.2.2,0,0,1-.08.15,1.31,1.31,0,0,0-.23.41Zm1.13,8.91v.66c0,.06,0,.09-.08.09H187c-.06,0-.08,0-.08-.09l0-2.36v-2l0-2c0-.06,0-.08.08-.08l1.68,0h.41v-2.33h-.63l-1.69,0c-.05,0-.08,0-.08-.09v-.37c0-.06,0-.09.08-.09l1.69,0h4.24l1.69,0a.08.08,0,0,1,.09.09v.37a.08.08,0,0,1-.09.09l-1.69,0h-1v2.33h.49l1.7,0c.06,0,.08,0,.08.08l0,1.86v2.19l0,2.35c0,.05,0,.08-.08.08h-.41a.07.07,0,0,1-.08-.08v-.62Zm1.62-.48v-4.87h-1.62V380Zm.52-5.36h1.59v-2.33h-1.59ZM191.2,380v-4.87h-1.59V380Zm.52,0h1.7v-4.87h-1.7Zm6.45-6.12a5.79,5.79,0,0,0,1.4,2.12,1.08,1.08,0,0,0-.24.32c-.05.07-.08.11-.1.11a.29.29,0,0,1-.1-.09,6.38,6.38,0,0,1-1.06-1.95c0,1.64,0,3.34.05,5.1,0,.45,0,.93,0,1.47,0,.26,0,.4,0,.42s0,.09-.08.09h-.43a.08.08,0,0,1-.09-.09s0-.25,0-.7c0-2.16.07-4.22.08-6.18a12.81,12.81,0,0,1-1.66,4.16c-.05.08-.08.12-.11.12s0,0-.09-.12a.88.88,0,0,0-.26-.3,13.07,13.07,0,0,0,2-4.48H197l-1.16,0c-.06,0-.08,0-.08-.09v-.35c0-.06,0-.09.08-.09l1.16,0h.58v-1.3a8,8,0,0,0-.08-1.36c.14,0,.35,0,.61.06.09,0,.13,0,.13.1a.58.58,0,0,1-.08.22,5.33,5.33,0,0,0-.05,1v1.32h.21l1.16,0a.08.08,0,0,1,.09.09v.35a.08.08,0,0,1-.09.09l-1.16,0Zm6.89-1a9.8,9.8,0,0,1-1.69,2.27,10,10,0,0,0,3.37,1.86,1.45,1.45,0,0,0-.25.36c0,.1-.08.14-.11.14l-.15,0a12,12,0,0,1-3.23-2,12.71,12.71,0,0,1-3.44,2.12.32.32,0,0,1-.15.05s-.08-.05-.14-.15a.76.76,0,0,0-.24-.29,11,11,0,0,0,3.57-2.1,8.54,8.54,0,0,1-1.39-1.88,8.46,8.46,0,0,1-1.19,1.42c-.07.07-.12.11-.14.11s-.07,0-.14-.11a.82.82,0,0,0-.3-.16,7.82,7.82,0,0,0,2.24-3.28,2,2,0,0,0,.13-.56l.56.15c.07,0,.1.06.1.11a.19.19,0,0,1-.08.14.82.82,0,0,0-.19.3c-.14.33-.26.58-.34.75h2.79a.42.42,0,0,0,.18,0l.14,0c.06,0,.14.05.25.16s.17.2.17.24a.22.22,0,0,1-.1.15.9.9,0,0,0-.23.27Zm-4,7.95v.6c0,.05,0,.07-.08.07h-.4c-.06,0-.08,0-.08-.07l0-1.95v-.88l0-1.23c0-.05,0-.08.08-.08l1.39,0h1.74l1.39,0c.06,0,.08,0,.08.08l0,1.1v1l0,2s0,.07-.08.07h-.4a.07.07,0,0,1-.08-.07v-.63Zm0-.48h3.56v-2.56h-3.56Zm.92-6.69a8,8,0,0,0,1,1.13,7.7,7.7,0,0,0,1.61-2.2h-3l-.13.21a8.15,8.15,0,0,0,.51.86Zm7.16-.67h1.42l1.25,0c.06,0,.08,0,.08.08v.37c0,.06,0,.09-.08.09l-1.25,0h-1.42l-1.24,0a.08.08,0,0,1-.09-.09V373c0-.06,0-.08.09-.08Zm.34-1.61h.92l1,0s.07,0,.07.08v.37c0,.05,0,.08-.07.08l-1,0h-.92l-1,0c-.06,0-.08,0-.08-.08v-.37c0-.05,0-.08.08-.08Zm-.59,9.29v.72c0,.06,0,.08-.08.08h-.36c-.06,0-.08,0-.08-.08l0-1.75v-.7l0-1c0-.05,0-.08.08-.08l1,0h.86l1,0c.06,0,.08,0,.08.08l0,.85v.75l0,1.66c0,.06,0,.09-.08.09H211c-.06,0-.08,0-.08-.09v-.5Zm.61-6.06h.8l1,0a.07.07,0,0,1,.08.08V375c0,.06,0,.09-.08.09l-1,0h-.8l-1,0a.08.08,0,0,1-.09-.09v-.36c0-.05,0-.08.09-.08Zm0,1.61h.8l1,0c.05,0,.08,0,.08.09v.36a.07.07,0,0,1-.08.08l-1,0h-.8l-1,0c-.06,0-.09,0-.09-.08v-.36a.08.08,0,0,1,.09-.09Zm-.61,4h2v-1.9h-2Zm5.92-1a8.1,8.1,0,0,1-1.67-2.79h-.73c-.06,0-.08,0-.08-.09V376c0-.05,0-.08.08-.08l1.45,0h2.87a.73.73,0,0,0,.25,0,.38.38,0,0,1,.13,0c.07,0,.15.07.26.2s.17.21.17.27,0,.08-.1.13a1.18,1.18,0,0,0-.25.39,9,9,0,0,1-1.62,2.36,9.75,9.75,0,0,0,3,1.65,1.22,1.22,0,0,0-.3.32c-.06.11-.11.16-.14.16l-.13,0a11.31,11.31,0,0,1-2.79-1.72,9.09,9.09,0,0,1-2.9,1.82l-.15,0s-.08,0-.14-.14a.76.76,0,0,0-.3-.29,9,9,0,0,0,3.12-1.79Zm-2.51-3.94a.76.76,0,0,0-.32-.2,3,3,0,0,0,1.09-1.09,3.84,3.84,0,0,0,.39-1.86l0-.78a.07.07,0,0,1,.08-.08l1,0h.86l1,0c.06,0,.08,0,.08.08l0,1v1.26c0,.32,0,.51.11.57a1.11,1.11,0,0,0,.61.11c.35,0,.57-.09.67-.26a1.87,1.87,0,0,0,.16-.95v-.14a.79.79,0,0,0,.31.2c.12.05.17.12.17.2v.07a1.14,1.14,0,0,1-1.39,1.37,1.89,1.89,0,0,1-.86-.12,1,1,0,0,1-.31-.87v-2H214a5.64,5.64,0,0,1-.37,2.28,3,3,0,0,1-1,1.21.54.54,0,0,1-.16.09s-.08,0-.15-.1Zm1.36,1.15a7.08,7.08,0,0,0,1.52,2.43,7.18,7.18,0,0,0,1.6-2.43Zm11.69,3.82a16.15,16.15,0,0,0,2.84.2c.65,0,1.27,0,1.87-.05a1.09,1.09,0,0,0-.14.38c0,.1,0,.16-.07.18a.41.41,0,0,1-.17,0h-1a12.16,12.16,0,0,1-4.91-.69,2.93,2.93,0,0,1-1-.86,7.41,7.41,0,0,1-.48-.86,5.91,5.91,0,0,1-1.85,2.55c-.07.07-.12.1-.14.1s-.08,0-.14-.12a1,1,0,0,0-.32-.23,5.74,5.74,0,0,0,2.38-4.29c0-.2,0-.34,0-.42v-.23l.53.11c.11,0,.17.07.17.12a.53.53,0,0,1-.07.18.7.7,0,0,0-.11.27,13.18,13.18,0,0,1-.26,1.31,4.11,4.11,0,0,0,.92,1.49,3.51,3.51,0,0,0,1.41.7v-5.31h-1.35l-1.65,0a.08.08,0,0,1-.09-.09v-.37c0-.06,0-.08.09-.08l1.65,0h3.33l1.65,0c.06,0,.09,0,.09.08v.37a.08.08,0,0,1-.09.09l-1.65,0h-1.43V377h1.88l1.12,0s.08,0,.08.08v.37c0,.06,0,.09-.08.09l-1.12,0h-1.88Zm-.67-8.08v-.2a5.81,5.81,0,0,0-.08-1.24,3.43,3.43,0,0,1,.62.06c.09,0,.14,0,.14.08a1.18,1.18,0,0,1-.07.22,3.27,3.27,0,0,0-.06.88v.2h2.86l1.7,0a.07.07,0,0,1,.08.07l0,.53v.43l0,1.22a.07.07,0,0,1-.08.08h-.41c-.06,0-.08,0-.08-.08v-1.73h-8.4v1.73s0,.08-.08.08h-.41a.07.07,0,0,1-.08-.08l0-1.22v-.35l0-.61a.07.07,0,0,1,.08-.07l1.68,0Zm8.78,2.36,1.72-.22c.18-.61.33-1.18.45-1.7a3.92,3.92,0,0,0,.1-.89v-.29a3.81,3.81,0,0,1,.81.3.17.17,0,0,1,.09.14.18.18,0,0,1-.06.13.85.85,0,0,0-.22.38c-.18.66-.36,1.28-.54,1.85a8.82,8.82,0,0,1,1.23-.11,1.36,1.36,0,0,1,1.18.47,2.24,2.24,0,0,1,.33,1.37,9.21,9.21,0,0,1-.65,3.85,1.36,1.36,0,0,1-1.25.91,3.37,3.37,0,0,1-1.24-.22.13.13,0,0,1-.11-.15,1.63,1.63,0,0,0-.12-.58,3.41,3.41,0,0,0,1.36.33.88.88,0,0,0,.81-.61,8.66,8.66,0,0,0,.58-3.52,1.91,1.91,0,0,0-.22-1.07.8.8,0,0,0-.67-.26,9.63,9.63,0,0,0-1.38.13,35,35,0,0,1-2.45,5.71.09.09,0,0,1-.09.07s0,0-.06,0l-.21-.14-.18-.13a.05.05,0,0,1,0-.05.23.23,0,0,1,0-.09,29.57,29.57,0,0,0,2.35-5.25c-.72.1-1.24.18-1.57.24a2.18,2.18,0,0,0-.66.19.41.41,0,0,1-.16,0,.14.14,0,0,1-.14-.09,3.1,3.1,0,0,1-.23-.67h.29a7.72,7.72,0,0,0,.92-.06Zm7.92,2.32a6.46,6.46,0,0,0-1.9-3,2.41,2.41,0,0,1,.43-.28h0a.21.21,0,0,1,.11.05,6.43,6.43,0,0,1,1.9,2.9.84.84,0,0,1,0,.1.18.18,0,0,1,0,.09,2,2,0,0,1-.38.23l-.09,0a.11.11,0,0,1-.1-.1Zm-.27-3.41a5.54,5.54,0,0,0-1.37-1.53l.35-.25h.1a5.39,5.39,0,0,1,1.36,1.46l0,0a.09.09,0,0,1,0,.06l-.29.24-.05,0a.14.14,0,0,1-.09-.05Zm1-.79a5.54,5.54,0,0,0-1.36-1.48l.31-.24.07,0,.05,0a5.88,5.88,0,0,1,1.35,1.38.07.07,0,0,1,0,.06.09.09,0,0,1,0,.07l-.28.24a.06.06,0,0,1-.05,0,.08.08,0,0,1-.07,0Zm3,.33h1.1l1.18,0c.06,0,.08,0,.08.07v.37c0,.07,0,.1-.08.1l-1.18,0h-1.1l-1.17,0c-.06,0-.09,0-.09-.1V373c0-.05,0-.07.09-.07Zm.24-1.6h.82l1,0c.06,0,.09,0,.09.08v.36c0,.05,0,.08-.09.08l-1,0h-.82l-1,0c-.06,0-.08,0-.08-.08v-.36c0-.05,0-.08.08-.08Zm-.49,9.34v.65c0,.06,0,.08-.08.08h-.36c-.06,0-.09,0-.09-.08l0-1.75v-.7l0-1c0-.05,0-.08.09-.08l.94,0h.71l1,0c.06,0,.09,0,.09.08l0,.85v.74l0,1.65a.08.08,0,0,1-.09.09h-.36c-.05,0-.08,0-.08-.09v-.42Zm.52-6.12h.64l.87,0a.07.07,0,0,1,.08.08V375c0,.06,0,.09-.08.09l-.87,0h-.64l-.88,0s-.08,0-.08-.09v-.36a.07.07,0,0,1,.08-.08Zm0,1.64h.64l.87,0s.08,0,.08.09v.36a.07.07,0,0,1-.08.07l-.87,0h-.64l-.88,0a.07.07,0,0,1-.08-.07v-.36c0-.06,0-.09.08-.09Zm-.52,4h1.73v-2H244.9Zm4.57-.67a1.63,1.63,0,0,0,.29-.45,4.54,4.54,0,0,1,.45.25c.06.05.09.09.09.13s0,.07-.09.1a1.22,1.22,0,0,0-.28.26,5.55,5.55,0,0,1-2,1.46l-.14.05s-.08-.05-.14-.15a.85.85,0,0,0-.24-.29,5,5,0,0,0,2-1.36Zm3.24-1.54v-1.51h-2.83l-1.38,0c-.06,0-.08,0-.08-.08l0-1v-1.88a10.38,10.38,0,0,0-.08-1.52,4.93,4.93,0,0,1,.58.06c.09,0,.13,0,.13.08a1,1,0,0,1,0,.19,5,5,0,0,0-.07,1.16V376h2.84l1.39,0c.06,0,.08,0,.08.08l0,.81V378h1.14c.06,0,.09,0,.09.07v.37c0,.07,0,.1-.09.1l-1.65,0h-3.32l-1.65,0c-.07,0-.1,0-.1-.1v-.37c0-.05,0-.07.1-.07l1.65,0Zm-1.34-6.71h1l1.11,0a.07.07,0,0,1,.08.08l0,1v1.21l0,1c0,.06,0,.08-.08.08l-1.11,0h-1l-1.12,0c-.05,0-.08,0-.08-.08l0-1V372.4l0-1a.07.07,0,0,1,.08-.08Zm1.7.47H250.7v2.45h2.37Zm-.73,7.37a8.77,8.77,0,0,0,2.11,1.66.7.7,0,0,0-.25.28c0,.1-.09.14-.12.14a.39.39,0,0,1-.17-.07,9.36,9.36,0,0,1-2-1.7l0,0s0-.06.12-.13l.17-.13s.06-.05.08-.05a.07.07,0,0,1,.06,0Zm5.25-2.25a4.18,4.18,0,0,1-.35-.64,11.23,11.23,0,0,0,1.82-.46,11.7,11.7,0,0,1,3.15-.67,2.5,2.5,0,0,1,1.87.67,2,2,0,0,1,.59,1.54,2.54,2.54,0,0,1-.42,1.49,3.22,3.22,0,0,1-1.1.92,7.86,7.86,0,0,1-2.52.8h-.06a.13.13,0,0,1-.12-.08,1.36,1.36,0,0,0-.37-.4,8.13,8.13,0,0,0,2.66-.76,2.16,2.16,0,0,0,1.31-2,1.5,1.5,0,0,0-.6-1.32,2.3,2.3,0,0,0-1.33-.34,10.48,10.48,0,0,0-3.61.95,2.86,2.86,0,0,0-.55.26.4.4,0,0,1-.2.12.2.2,0,0,1-.17-.1Zm11.05-2.74a4.09,4.09,0,0,1-.3-.74h.12a9.51,9.51,0,0,0,1.34-.12q3.74-.58,7.39-1h.05a.12.12,0,0,1,.13.09,1.53,1.53,0,0,1,.06.45c0,.07,0,.11-.13.12a5.12,5.12,0,0,0-1.86.4,6.3,6.3,0,0,0-2.27,1.62,3.51,3.51,0,0,0-.8,2.16,2.33,2.33,0,0,0,1.33,2.21,6.37,6.37,0,0,0,2.23.57c.12,0,.17,0,.17.1a2.37,2.37,0,0,1,0,.43c0,.1-.07.15-.14.15h-.05a5.82,5.82,0,0,1-3-1,2.84,2.84,0,0,1-1.16-2.41,3.82,3.82,0,0,1,.93-2.49,7.14,7.14,0,0,1,2.23-1.59v0c-2.13.31-3.87.62-5.22.9a2.75,2.75,0,0,0-.67.2.63.63,0,0,1-.21.08.16.16,0,0,1-.16-.09Zm12.31-.52a4.49,4.49,0,0,0-.1-1.15,3.4,3.4,0,0,1,.82.2.11.11,0,0,1,.09.1.74.74,0,0,1,0,.18,3.18,3.18,0,0,0-.12,1.07,21.29,21.29,0,0,0,.16,2.72,5.56,5.56,0,0,0,.58,2c.24.44.49.66.76.66s.54-.22.8-.66a5.07,5.07,0,0,0,.54-1.31,1.42,1.42,0,0,0,.34.51.23.23,0,0,1,.08.14.24.24,0,0,1,0,.08,4.1,4.1,0,0,1-.74,1.35,1.33,1.33,0,0,1-1,.55q-.8,0-1.35-1.11a6.89,6.89,0,0,1-.62-2.23,23.19,23.19,0,0,1-.18-3.13Zm8.25,4.41A6.73,6.73,0,0,0,287,373.9a2.4,2.4,0,0,1,.41-.26l.09,0,.07,0a6.78,6.78,0,0,1,2.32,4.16v0a.1.1,0,0,1-.07.1,2.27,2.27,0,0,1-.45.21h0c-.05,0-.07,0-.09-.07Zm6.84-5.22c-.09.32-.15.56-.2.72a14.24,14.24,0,0,0,2-.52h.06s.06,0,.07.08,0,.31,0,.36,0,.15-.1.17a18.14,18.14,0,0,1-2.21.51,48.29,48.29,0,0,1-2.33,6.47c0,.05,0,.07-.07.07h-.07l-.46-.21s0,0,0-.06a.19.19,0,0,1,0-.07,34.84,34.84,0,0,0,2.28-6.1,21.36,21.36,0,0,1-2.53.15c-.1,0-.16,0-.17-.09a3.51,3.51,0,0,1-.07-.53,5.23,5.23,0,0,0,.71,0,17.06,17.06,0,0,0,2.23-.17c.12-.49.24-1,.33-1.49a4.49,4.49,0,0,0,.11-.9,1.48,1.48,0,0,0,0-.22,2.64,2.64,0,0,1,.84.24.11.11,0,0,1,.07.11.26.26,0,0,1-.09.18,1.15,1.15,0,0,0-.21.47l-.21.81Zm1.31,7.24a2,2,0,0,1-.58-1.59l.33,0h.1a.1.1,0,0,1,.11.1,1.41,1.41,0,0,0,.71,1.26,3.9,3.9,0,0,0,1.7.27,9.91,9.91,0,0,0,1.69-.15h.06s.08,0,.09.09a3.19,3.19,0,0,1,0,.42.12.12,0,0,1-.12.13,8.26,8.26,0,0,1-1.52.14,6.41,6.41,0,0,1-1.63-.16,2.39,2.39,0,0,1-1-.48Zm2.25-4.43a7.75,7.75,0,0,0-2,.26c0-.1,0-.26,0-.48a.14.14,0,0,1,.13-.15,8.19,8.19,0,0,1,1.87-.24,13.83,13.83,0,0,1,1.69.11.15.15,0,0,1,.14.13.38.38,0,0,1,0,.1c0,.07,0,.16,0,.27s0,.13-.09.13h0a11.14,11.14,0,0,0-1.72-.12Z"/><text class="cls-6" transform="translate(38.93 75.68)">市場のニーズがなかった</text></svg>